<svg width="400" height="300" viewBox="0 0 400 300" fill="none" xmlns="http://www.w3.org/2000/svg">
  <!-- Background -->
  <rect width="400" height="300" fill="#f8f9fa"/>
  
  <!-- Header -->
  <rect x="0" y="0" width="400" height="50" fill="#2c3e50"/>
  <text x="20" y="30" font-family="Arial, sans-serif" font-size="16" font-weight="bold" fill="white">Loja Virtual</text>
  <circle cx="320" cy="25" r="12" fill="#e74c3c"/>
  <text x="315" y="30" font-family="Arial, sans-serif" font-size="10" fill="white">3</text>
  <rect x="340" y="18" width="40" height="14" fill="#27ae60" rx="7"/>
  <text x="355" y="28" font-family="Arial, sans-serif" font-size="8" fill="white">Carrinho</text>
  
  <!-- Search Bar -->
  <rect x="20" y="60" width="280" height="25" fill="white" stroke="#ddd" rx="12"/>
  <text x="30" y="77" font-family="Arial, sans-serif" font-size="12" fill="#7f8c8d">Buscar produtos...</text>
  <rect x="310" y="60" width="70" height="25" fill="#3498db" rx="12"/>
  <text x="335" y="77" font-family="Arial, sans-serif" font-size="10" fill="white">Pesquisar</text>
  
  <!-- Categories -->
  <rect x="20" y="100" width="70" height="20" fill="#ecf0f1" rx="10"/>
  <text x="40" y="114" font-family="Arial, sans-serif" font-size="8" fill="#2c3e50">Eletrônicos</text>
  <rect x="100" y="100" width="50" height="20" fill="#ecf0f1" rx="10"/>
  <text x="115" y="114" font-family="Arial, sans-serif" font-size="8" fill="#2c3e50">Roupas</text>
  <rect x="160" y="100" width="40" height="20" fill="#ecf0f1" rx="10"/>
  <text x="170" y="114" font-family="Arial, sans-serif" font-size="8" fill="#2c3e50">Casa</text>
  
  <!-- Product Grid -->
  <rect x="20" y="140" width="110" height="130" fill="white" stroke="#ddd" rx="4"/>
  <rect x="25" y="145" width="100" height="80" fill="#e8f4f8" rx="2"/>
  <circle cx="75" cy="185" r="15" fill="#3498db"/>
  <text x="30" y="240" font-family="Arial, sans-serif" font-size="10" font-weight="bold" fill="#2c3e50">Smartphone Pro</text>
  <text x="30" y="252" font-family="Arial, sans-serif" font-size="12" font-weight="bold" fill="#e74c3c">R$ 899,90</text>
  <rect x="75" y="255" width="50" height="12" fill="#27ae60" rx="6"/>
  <text x="90" y="263" font-family="Arial, sans-serif" font-size="8" fill="white">Comprar</text>
  
  <rect x="145" y="140" width="110" height="130" fill="white" stroke="#ddd" rx="4"/>
  <rect x="150" y="145" width="100" height="80" fill="#fdf2e9" rx="2"/>
  <circle cx="200" cy="185" r="15" fill="#f39c12"/>
  <text x="155" y="240" font-family="Arial, sans-serif" font-size="10" font-weight="bold" fill="#2c3e50">Notebook Gamer</text>
  <text x="155" y="252" font-family="Arial, sans-serif" font-size="12" font-weight="bold" fill="#e74c3c">R$ 2.499,90</text>
  <rect x="200" y="255" width="50" height="12" fill="#27ae60" rx="6"/>
  <text x="215" y="263" font-family="Arial, sans-serif" font-size="8" fill="white">Comprar</text>
  
  <rect x="270" y="140" width="110" height="130" fill="white" stroke="#ddd" rx="4"/>
  <rect x="275" y="145" width="100" height="80" fill="#f4f1f8" rx="2"/>
  <circle cx="325" cy="185" r="15" fill="#9b59b6"/>
  <text x="280" y="240" font-family="Arial, sans-serif" font-size="10" font-weight="bold" fill="#2c3e50">Headset Wireless</text>
  <text x="280" y="252" font-family="Arial, sans-serif" font-size="12" font-weight="bold" fill="#e74c3c">R$ 199,90</text>
  <rect x="325" y="255" width="50" height="12" fill="#27ae60" rx="6"/>
  <text x="340" y="263" font-family="Arial, sans-serif" font-size="8" fill="white">Comprar</text>
</svg>