<svg width="400" height="300" viewBox="0 0 400 300" xmlns="http://www.w3.org/2000/svg">
  <rect width="400" height="300" fill="#e8f4f8"/>
  <rect x="50" y="50" width="300" height="200" fill="#ffffff" rx="10" stroke="#0288d1" stroke-width="2"/>
  
  <!-- Pharmacy Cross -->
  <rect x="180" y="90" width="40" height="15" fill="#4caf50"/>
  <rect x="192.5" y="77.5" width="15" height="40" fill="#4caf50"/>
  
  <!-- Medicine Bottles -->
  <rect x="120" y="140" width="20" height="40" fill="#2196f3" rx="3"/>
  <rect x="120" y="135" width="20" height="8" fill="#1976d2" rx="2"/>
  <circle cx="130" cy="139" r="2" fill="#ffffff"/>
  
  <rect x="150" y="145" width="18" height="35" fill="#ff9800" rx="3"/>
  <rect x="150" y="140" width="18" height="8" fill="#f57c00" rx="2"/>
  <circle cx="159" cy="144" r="2" fill="#ffffff"/>
  
  <rect x="250" y="142" width="22" height="38" fill="#9c27b0" rx="3"/>
  <rect x="250" y="137" width="22" height="8" fill="#7b1fa2" rx="2"/>
  <circle cx="261" cy="141" r="2" fill="#ffffff"/>
  
  <rect x="280" y="140" width="20" height="40" fill="#4caf50" rx="3"/>
  <rect x="280" y="135" width="20" height="8" fill="#388e3c" rx="2"/>
  <circle cx="290" cy="139" r="2" fill="#ffffff"/>
  
  <!-- Pills -->
  <circle cx="200" cy="170" r="4" fill="#f44336"/>
  <circle cx="210" cy="175" r="4" fill="#ffeb3b"/>
  <circle cx="190" cy="175" r="4" fill="#2196f3"/>
  
  <text x="200" y="210" text-anchor="middle" font-family="Arial" font-size="18" font-weight="bold" fill="#333">Farmácia São José</text>
  <text x="200" y="230" text-anchor="middle" font-family="Arial" font-size="12" fill="#666">Saúde e bem-estar para toda família</text>
</svg>