<svg width="400" height="300" viewBox="0 0 400 300" fill="none" xmlns="http://www.w3.org/2000/svg">
  <!-- Browser Frame -->
  <rect width="400" height="300" fill="#f0f0f0" rx="8"/>
  <rect x="8" y="8" width="384" height="24" fill="#e0e0e0" rx="4"/>
  <circle cx="20" cy="20" r="4" fill="#ff5f56"/>
  <circle cx="32" cy="20" r="4" fill="#ffbd2e"/>
  <circle cx="44" cy="20" r="4" fill="#27ca3f"/>
  <rect x="60" y="14" width="280" height="12" fill="white" rx="6"/>
  <text x="70" y="23" font-family="Arial, sans-serif" font-size="8" fill="#666">www.modaelegante.com.br</text>
  
  <!-- Website Content -->
  <rect x="8" y="32" width="384" height="260" fill="white"/>
  
  <!-- Header -->
  <rect x="8" y="32" width="384" height="45" fill="#E91E63"/>
  <circle cx="35" cy="54" r="8" fill="white"/>
  <text x="33" y="58" font-family="Arial, sans-serif" font-size="8" fill="#E91E63" text-anchor="middle">👗</text>
  <text x="55" y="52" font-family="Arial, sans-serif" font-size="14" font-weight="bold" fill="white">Moda Elegante</text>
  <text x="55" y="64" font-family="Arial, sans-serif" font-size="8" fill="#FCE4EC">Moda feminina com estilo</text>
  
  <rect x="260" y="42" width="35" height="14" fill="white" rx="7"/>
  <text x="277" y="51" font-family="Arial, sans-serif" font-size="7" fill="#E91E63" text-anchor="middle">LOGIN</text>
  
  <rect x="305" y="42" width="35" height="14" fill="#FF9800" rx="7"/>
  <text x="322" y="51" font-family="Arial, sans-serif" font-size="7" fill="white" text-anchor="middle">CART (3)</text>
  
  <rect x="350" y="42" width="35" height="14" fill="#4CAF50" rx="7"/>
  <text x="367" y="51" font-family="Arial, sans-serif" font-size="7" fill="white" text-anchor="middle">COMPRAR</text>
  
  <!-- Search Bar -->
  <rect x="8" y="77" width="384" height="25" fill="#F3E5F5"/>
  <rect x="20" y="82" width="280" height="15" fill="white" stroke="#E91E63" rx="7"/>
  <text x="25" y="92" font-family="Arial, sans-serif" font-size="8" fill="#999">Buscar roupas, vestidos, blusas...</text>
  <rect x="310" y="82" width="60" height="15" fill="#E91E63" rx="7"/>
  <text x="340" y="92" font-family="Arial, sans-serif" font-size="7" fill="white" text-anchor="middle">BUSCAR</text>
  
  <!-- Categories -->
  <rect x="8" y="102" width="384" height="25" fill="#FCE4EC"/>
  <text x="25" y="117" font-family="Arial, sans-serif" font-size="8" font-weight="bold" fill="#E91E63">VESTIDOS</text>
  <text x="80" y="117" font-family="Arial, sans-serif" font-size="8" fill="#666">BLUSAS</text>
  <text x="125" y="117" font-family="Arial, sans-serif" font-size="8" fill="#666">CALÇAS</text>
  <text x="170" y="117" font-family="Arial, sans-serif" font-size="8" fill="#666">SAIAS</text>
  <text x="210" y="117" font-family="Arial, sans-serif" font-size="8" fill="#666">ACESSÓRIOS</text>
  <text x="275" y="117" font-family="Arial, sans-serif" font-size="8" fill="#666">PROMOÇÕES</text>
  <text x="335" y="117" font-family="Arial, sans-serif" font-size="8" fill="#FF5722">SALE 50%</text>
  
  <!-- Hero Banner -->
  <rect x="8" y="127" width="384" height="60" fill="linear-gradient(135deg, #E91E63 0%, #F06292 100%)"/>
  <text x="200" y="148" font-family="Arial, sans-serif" font-size="16" font-weight="bold" fill="white" text-anchor="middle">✨ COLEÇÃO PRIMAVERA/VERÃO ✨</text>
  <text x="200" y="162" font-family="Arial, sans-serif" font-size="10" fill="white" text-anchor="middle">Até 70% OFF em peças selecionadas • Frete grátis acima de R$ 199</text>
  <rect x="160" y="170" width="80" height="12" fill="white" rx="6"/>
  <text x="200" y="178" font-family="Arial, sans-serif" font-size="8" fill="#E91E63" text-anchor="middle">VER COLEÇÃO</text>
  
  <!-- Products Grid -->
  <rect x="15" y="195" width="85" height="90" fill="white" stroke="#F8BBD9" rx="4"/>
  <rect x="20" y="200" width="75" height="55" fill="#F8BBD9" rx="2"/>
  <circle cx="57" cy="227" r="8" fill="#E91E63"/>
  <text x="57" y="231" font-family="Arial, sans-serif" font-size="6" fill="white" text-anchor="middle">👗</text>
  <text x="57" y="250" font-family="Arial, sans-serif" font-size="8" font-weight="bold" fill="#E91E63" text-anchor="middle">Vestido Floral</text>
  <text x="57" y="260" font-family="Arial, sans-serif" font-size="7" fill="#999" text-anchor="middle" text-decoration="line-through">R$ 149,90</text>
  <text x="57" y="270" font-family="Arial, sans-serif" font-size="9" fill="#E91E63" font-weight="bold" text-anchor="middle">R$ 89,90</text>
  <rect x="45" y="275" width="24" height="8" fill="#4CAF50" rx="4"/>
  <text x="57" y="281" font-family="Arial, sans-serif" font-size="6" fill="white" text-anchor="middle">COMPRAR</text>
  
  <rect x="110" y="195" width="85" height="90" fill="white" stroke="#F8BBD9" rx="4"/>
  <rect x="115" y="200" width="75" height="55" fill="#FFE0E6" rx="2"/>
  <circle cx="152" cy="227" r="8" fill="#E91E63"/>
  <text x="152" y="231" font-family="Arial, sans-serif" font-size="6" fill="white" text-anchor="middle">👚</text>
  <text x="152" y="250" font-family="Arial, sans-serif" font-size="8" font-weight="bold" fill="#E91E63" text-anchor="middle">Blusa Básica</text>
  <text x="152" y="260" font-family="Arial, sans-serif" font-size="7" fill="#999" text-anchor="middle" text-decoration="line-through">R$ 79,90</text>
  <text x="152" y="270" font-family="Arial, sans-serif" font-size="9" fill="#E91E63" font-weight="bold" text-anchor="middle">R$ 39,90</text>
  <rect x="140" y="275" width="24" height="8" fill="#4CAF50" rx="4"/>
  <text x="152" y="281" font-family="Arial, sans-serif" font-size="6" fill="white" text-anchor="middle">COMPRAR</text>
  
  <rect x="205" y="195" width="85" height="90" fill="white" stroke="#F8BBD9" rx="4"/>
  <rect x="210" y="200" width="75" height="55" fill="#E1BEE7" rx="2"/>
  <circle cx="247" cy="227" r="8" fill="#E91E63"/>
  <text x="247" y="231" font-family="Arial, sans-serif" font-size="6" fill="white" text-anchor="middle">👖</text>
  <text x="247" y="250" font-family="Arial, sans-serif" font-size="8" font-weight="bold" fill="#E91E63" text-anchor="middle">Calça Jeans</text>
  <text x="247" y="260" font-family="Arial, sans-serif" font-size="7" fill="#999" text-anchor="middle" text-decoration="line-through">R$ 199,90</text>
  <text x="247" y="270" font-family="Arial, sans-serif" font-size="9" fill="#E91E63" font-weight="bold" text-anchor="middle">R$ 129,90</text>
  <rect x="235" y="275" width="24" height="8" fill="#4CAF50" rx="4"/>
  <text x="247" y="281" font-family="Arial, sans-serif" font-size="6" fill="white" text-anchor="middle">COMPRAR</text>
  
  <rect x="300" y="195" width="85" height="90" fill="#25D366" rx="4"/>
  <text x="342" y="215" font-family="Arial, sans-serif" font-size="10" font-weight="bold" fill="white" text-anchor="middle">💬</text>
  <text x="342" y="230" font-family="Arial, sans-serif" font-size="8" fill="white" text-anchor="middle">ATENDIMENTO</text>
  <text x="342" y="242" font-family="Arial, sans-serif" font-size="8" font-weight="bold" fill="white" text-anchor="middle">WHATSAPP</text>
  <text x="342" y="255" font-family="Arial, sans-serif" font-size="7" fill="white" text-anchor="middle">(11) 9999-5555</text>
  <text x="342" y="267" font-family="Arial, sans-serif" font-size="7" fill="white" text-anchor="middle">Segunda à Sábado</text>
  <text x="342" y="277" font-family="Arial, sans-serif" font-size="7" fill="white" text-anchor="middle">9h às 18h</text>
</svg>