<svg width="400" height="300" viewBox="0 0 400 300" fill="none" xmlns="http://www.w3.org/2000/svg">
  <!-- Browser Frame -->
  <rect width="400" height="300" fill="#f0f0f0" rx="8"/>
  <rect x="8" y="8" width="384" height="24" fill="#e0e0e0" rx="4"/>
  <circle cx="20" cy="20" r="4" fill="#ff5f56"/>
  <circle cx="32" cy="20" r="4" fill="#ffbd2e"/>
  <circle cx="44" cy="20" r="4" fill="#27ca3f"/>
  <rect x="60" y="14" width="280" height="12" fill="white" rx="6"/>
  <text x="70" y="23" font-family="Arial, sans-serif" font-size="8" fill="#666">www.padariadadona.com.br</text>
  
  <!-- Website Content -->
  <rect x="8" y="32" width="384" height="260" fill="white"/>
  
  <!-- Header -->
  <rect x="8" y="32" width="384" height="50" fill="#8B4513"/>
  <circle cx="40" cy="57" r="12" fill="#F4A460"/>
  <path d="M35 52 h10 v10 h-10 z" fill="#DEB887"/>
  <text x="60" y="53" font-family="Arial, sans-serif" font-size="14" font-weight="bold" fill="white">Padaria da Dona Maria</text>
  <text x="60" y="68" font-family="Arial, sans-serif" font-size="9" fill="#F4A460">Tradição e sabor desde 1985</text>
  
  <rect x="280" y="47" width="45" height="16" fill="#FF6B35" rx="8"/>
  <text x="302" y="57" font-family="Arial, sans-serif" font-size="8" fill="white" text-anchor="middle">DELIVERY</text>
  
  <rect x="335" y="47" width="45" height="16" fill="#25D366" rx="8"/>
  <text x="357" y="57" font-family="Arial, sans-serif" font-size="8" fill="white" text-anchor="middle">WHATSAPP</text>
  
  <!-- Hero Section -->
  <rect x="8" y="82" width="384" height="80" fill="linear-gradient(135deg, #F4A460 0%, #DEB887 100%)"/>
  <text x="200" y="110" font-family="Arial, sans-serif" font-size="18" font-weight="bold" fill="#8B4513" text-anchor="middle">🥖 PÃES FRESCOS DIRETO DO FORNO! 🥖</text>
  <text x="200" y="125" font-family="Arial, sans-serif" font-size="11" fill="#8B4513" text-anchor="middle">Delivery grátis acima de R$ 30 • Aberto das 5h às 19h</text>
  <rect x="160" y="135" width="80" height="18" fill="#FF6B35" rx="9"/>
  <text x="200" y="147" font-family="Arial, sans-serif" font-size="9" fill="white" text-anchor="middle">FAZER PEDIDO</text>
  
  <!-- Navigation -->
  <rect x="8" y="162" width="384" height="25" fill="#f8f9fa"/>
  <text x="30" y="177" font-family="Arial, sans-serif" font-size="9" font-weight="bold" fill="#8B4513">PÃES</text>
  <text x="80" y="177" font-family="Arial, sans-serif" font-size="9" fill="#666">DOCES</text>
  <text x="130" y="177" font-family="Arial, sans-serif" font-size="9" fill="#666">SALGADOS</text>
  <text x="190" y="177" font-family="Arial, sans-serif" font-size="9" fill="#666">BOLOS</text>
  <text x="240" y="177" font-family="Arial, sans-serif" font-size="9" fill="#666">CAFÉ</text>
  <text x="280" y="177" font-family="Arial, sans-serif" font-size="9" fill="#666">CONTATO</text>
  
  <!-- Products Grid -->
  <rect x="20" y="200" width="90" height="80" fill="white" stroke="#ddd" rx="4"/>
  <rect x="25" y="205" width="80" height="45" fill="#F4A460" rx="2"/>
  <circle cx="65" cy="227" r="8" fill="#D2691E"/>
  <text x="65" y="231" font-family="Arial, sans-serif" font-size="6" fill="white" text-anchor="middle">🥖</text>
  <text x="65" y="260" font-family="Arial, sans-serif" font-size="9" font-weight="bold" fill="#8B4513" text-anchor="middle">Pão Francês</text>
  <text x="65" y="272" font-family="Arial, sans-serif" font-size="8" fill="#FF6B35" text-anchor="middle">R$ 0,75</text>
  
  <rect x="120" y="200" width="90" height="80" fill="white" stroke="#ddd" rx="4"/>
  <rect x="125" y="205" width="80" height="45" fill="#8B4513" rx="2"/>
  <circle cx="165" cy="227" r="8" fill="#F4A460"/>
  <text x="165" y="231" font-family="Arial, sans-serif" font-size="6" fill="white" text-anchor="middle">🍰</text>
  <text x="165" y="260" font-family="Arial, sans-serif" font-size="9" font-weight="bold" fill="#8B4513" text-anchor="middle">Bolo Chocolate</text>
  <text x="165" y="272" font-family="Arial, sans-serif" font-size="8" fill="#FF6B35" text-anchor="middle">R$ 28,90</text>
  
  <rect x="220" y="200" width="90" height="80" fill="white" stroke="#ddd" rx="4"/>
  <rect x="225" y="205" width="80" height="45" fill="#FFD700" rx="2"/>
  <circle cx="265" cy="227" r="8" fill="#F4A460"/>
  <text x="265" y="231" font-family="Arial, sans-serif" font-size="6" fill="white" text-anchor="middle">🥐</text>
  <text x="265" y="260" font-family="Arial, sans-serif" font-size="9" font-weight="bold" fill="#8B4513" text-anchor="middle">Croissant</text>
  <text x="265" y="272" font-family="Arial, sans-serif" font-size="8" fill="#FF6B35" text-anchor="middle">R$ 5,50</text>
  
  <rect x="320" y="200" width="60" height="80" fill="#25D366" rx="4"/>
  <text x="350" y="225" font-family="Arial, sans-serif" font-size="10" font-weight="bold" fill="white" text-anchor="middle">💬</text>
  <text x="350" y="240" font-family="Arial, sans-serif" font-size="8" fill="white" text-anchor="middle">PEÇA PELO</text>
  <text x="350" y="252" font-family="Arial, sans-serif" font-size="8" font-weight="bold" fill="white" text-anchor="middle">WHATSAPP</text>
  <text x="350" y="265" font-family="Arial, sans-serif" font-size="7" fill="white" text-anchor="middle">(11) 9999-8888</text>
</svg>