<svg width="400" height="600" viewBox="0 0 400 600" xmlns="http://www.w3.org/2000/svg">
  <!-- Portfólio de Designer -->
  <defs>
    <linearGradient id="designGrad1" x1="0%" y1="0%" x2="100%" y2="100%">
      <stop offset="0%" style="stop-color:#667eea;stop-opacity:1" />
      <stop offset="100%" style="stop-color:#764ba2;stop-opacity:1" />
    </linearGradient>
    <linearGradient id="designGrad2" x1="0%" y1="0%" x2="100%" y2="0%">
      <stop offset="0%" style="stop-color:#f093fb;stop-opacity:1" />
      <stop offset="100%" style="stop-color:#f5576c;stop-opacity:1" />
    </linearGradient>
    <linearGradient id="designGrad3" x1="0%" y1="0%" x2="0%" y2="100%">
      <stop offset="0%" style="stop-color:#4facfe;stop-opacity:1" />
      <stop offset="100%" style="stop-color:#00f2fe;stop-opacity:1" />
    </linearGradient>
  </defs>
  
  <!-- Browser Frame -->
  <rect width="400" height="600" fill="#1a1a1a" rx="8"/>
  <rect width="400" height="30" fill="#2d2d2d" rx="8 8 0 0"/>
  <circle cx="15" cy="15" r="4" fill="#ff5f56"/>
  <circle cx="35" cy="15" r="4" fill="#ffbd2e"/>
  <circle cx="55" cy="15" r="4" fill="#27ca3f"/>
  
  <!-- Header -->
  <rect x="0" y="30" width="400" height="80" fill="#000"/>
  <circle cx="60" cy="70" r="20" fill="url(#designGrad1)"/>
  <text x="50" y="75" fill="white" font-family="Arial, sans-serif" font-size="16" font-weight="bold">AB</text>
  <text x="90" y="65" fill="white" font-family="Arial, sans-serif" font-size="16" font-weight="bold">Ana Beatriz</text>
  <text x="90" y="80" fill="#888" font-family="Arial, sans-serif" font-size="12">UI/UX Designer</text>
  
  <!-- Navigation -->
  <text x="280" y="60" fill="#888" font-family="Arial, sans-serif" font-size="11">TRABALHOS</text>
  <text x="280" y="75" fill="#888" font-family="Arial, sans-serif" font-size="11">SOBRE</text>
  <text x="280" y="90" fill="#888" font-family="Arial, sans-serif" font-size="11">CONTATO</text>
  
  <text x="340" y="60" fill="#667eea" font-family="Arial, sans-serif" font-size="11">PORTFOLIO</text>
  <text x="340" y="75" fill="#888" font-family="Arial, sans-serif" font-size="11">BLOG</text>
  <text x="340" y="90" fill="#888" font-family="Arial, sans-serif" font-size="11">CV</text>
  
  <!-- Hero Section -->
  <rect x="30" y="130" width="340" height="100" fill="#111" rx="12"/>
  <text x="50" y="160" fill="white" font-family="Arial, sans-serif" font-size="20" font-weight="bold">Design que</text>
  <text x="50" y="185" fill="white" font-family="Arial, sans-serif" font-size="20" font-weight="bold">Transforma</text>
  <text x="50" y="210" fill="#888" font-family="Arial, sans-serif" font-size="12">Criando experiências digitais únicas</text>
  
  <!-- Skills -->
  <rect x="250" y="150" width="100" height="60" fill="transparent"/>
  <rect x="255" y="155" width="20" height="20" fill="url(#designGrad2)" rx="4"/>
  <text x="280" y="168" fill="#888" font-family="Arial, sans-serif" font-size="9">Figma</text>
  <rect x="255" y="180" width="20" height="20" fill="url(#designGrad3)" rx="4"/>
  <text x="280" y="193" fill="#888" font-family="Arial, sans-serif" font-size="9">Adobe XD</text>
  
  <rect x="320" y="155" width="20" height="20" fill="url(#designGrad1)" rx="4"/>
  <text x="345" y="168" fill="#888" font-family="Arial, sans-serif" font-size="9">Sketch</text>
  <rect x="320" y="180" width="20" height="20" fill="#f5576c" rx="4"/>
  <text x="345" y="193" fill="#888" font-family="Arial, sans-serif" font-size="9">Framer</text>
  
  <!-- Portfolio Grid -->
  <text x="30" y="265" fill="white" font-family="Arial, sans-serif" font-size="14" font-weight="bold">Trabalhos Recentes</text>
  
  <!-- Project 1 -->
  <rect x="30" y="280" width="100" height="80" fill="url(#designGrad2)" rx="8"/>
  <rect x="35" y="285" width="90" height="50" fill="white" rx="4" opacity="0.9"/>
  <text x="40" y="345" fill="white" font-family="Arial, sans-serif" font-size="10" font-weight="bold">App Mobile</text>
  <text x="40" y="355" fill="#ccc" font-family="Arial, sans-serif" font-size="8">E-commerce</text>
  
  <!-- Project 2 -->
  <rect x="150" y="280" width="100" height="80" fill="url(#designGrad3)" rx="8"/>
  <rect x="155" y="285" width="90" height="50" fill="white" rx="4" opacity="0.9"/>
  <text x="160" y="345" fill="white" font-family="Arial, sans-serif" font-size="10" font-weight="bold">Website</text>
  <text x="160" y="355" fill="#ccc" font-family="Arial, sans-serif" font-size="8">Startup Tech</text>
  
  <!-- Project 3 -->
  <rect x="270" y="280" width="100" height="80" fill="url(#designGrad1)" rx="8"/>
  <rect x="275" y="285" width="90" height="50" fill="white" rx="4" opacity="0.9"/>
  <text x="280" y="345" fill="white" font-family="Arial, sans-serif" font-size="10" font-weight="bold">Dashboard</text>
  <text x="280" y="355" fill="#ccc" font-family="Arial, sans-serif" font-size="8">Analytics</text>
  
  <!-- Project 4 -->
  <rect x="30" y="380" width="100" height="80" fill="#f5576c" rx="8"/>
  <rect x="35" y="385" width="90" height="50" fill="white" rx="4" opacity="0.9"/>
  <text x="40" y="445" fill="white" font-family="Arial, sans-serif" font-size="10" font-weight="bold">Branding</text>
  <text x="40" y="455" fill="#ccc" font-family="Arial, sans-serif" font-size="8">Identidade Visual</text>
  
  <!-- Project 5 -->
  <rect x="150" y="380" width="100" height="80" fill="#667eea" rx="8"/>
  <rect x="155" y="385" width="90" height="50" fill="white" rx="4" opacity="0.9"/>
  <text x="160" y="445" fill="white" font-family="Arial, sans-serif" font-size="10" font-weight="bold">Landing Page</text>
  <text x="160" y="455" fill="#ccc" font-family="Arial, sans-serif" font-size="8">SaaS Platform</text>
  
  <!-- Contact Section -->
  <rect x="270" y="380" width="100" height="80" fill="#222" rx="8"/>
  <text x="285" y="405" fill="white" font-family="Arial, sans-serif" font-size="12" font-weight="bold">Vamos</text>
  <text x="285" y="420" fill="white" font-family="Arial, sans-serif" font-size="12" font-weight="bold">Conversar?</text>
  <rect x="280" y="430" width="80" height="20" fill="url(#designGrad2)" rx="10"/>
  <text x="310" y="442" fill="white" font-family="Arial, sans-serif" font-size="9" font-weight="bold">CONTATO</text>
  
  <!-- Footer -->
  <rect x="0" y="480" width="400" height="120" fill="#111"/>
  <text x="30" y="510" fill="white" font-family="Arial, sans-serif" font-size="12" font-weight="bold">Ana Beatriz Designer</text>
  <text x="30" y="530" fill="#888" font-family="Arial, sans-serif" font-size="10">📧 ana@designer.com.br</text>
  <text x="30" y="545" fill="#888" font-family="Arial, sans-serif" font-size="10">📱 (11) 99999-8888</text>
  <text x="30" y="560" fill="#888" font-family="Arial, sans-serif" font-size="10">🌐 LinkedIn | Behance | Dribbble</text>
  
  <!-- Stats -->
  <rect x="250" y="500" width="120" height="80" fill="transparent"/>
  <text x="260" y="520" fill="#667eea" font-family="Arial, sans-serif" font-size="16" font-weight="bold">50+</text>
  <text x="260" y="535" fill="#888" font-family="Arial, sans-serif" font-size="10">Projetos</text>
  <text x="260" y="545" fill="#888" font-family="Arial, sans-serif" font-size="10">Entregues</text>
  
  <text x="320" y="520" fill="#f5576c" font-family="Arial, sans-serif" font-size="16" font-weight="bold">3</text>
  <text x="320" y="535" fill="#888" font-family="Arial, sans-serif" font-size="10">Anos de</text>
  <text x="320" y="545" fill="#888" font-family="Arial, sans-serif" font-size="10">Experiência</text>
  
  <text x="260" y="565" fill="#4facfe" font-family="Arial, sans-serif" font-size="16" font-weight="bold">98%</text>
  <text x="260" y="580" fill="#888" font-family="Arial, sans-serif" font-size="10">Satisfação</text>
  
  <text x="320" y="565" fill="#f093fb" font-family="Arial, sans-serif" font-size="16" font-weight="bold">24h</text>
  <text x="320" y="580" fill="#888" font-family="Arial, sans-serif" font-size="10">Resposta</text>
</svg>