<svg width="400" height="300" viewBox="0 0 400 300" fill="none" xmlns="http://www.w3.org/2000/svg">
  <!-- Background -->
  <rect width="400" height="300" fill="#f8f9fa"/>
  
  <!-- Header -->
  <rect x="0" y="0" width="400" height="50" fill="#2c3e50"/>
  <text x="20" y="30" font-family="Arial, sans-serif" font-size="16" font-weight="bold" fill="white">Portfolio Web</text>
  <circle cx="350" cy="25" r="8" fill="#e74c3c"/>
  <circle cx="370" cy="25" r="8" fill="#f39c12"/>
  
  <!-- Navigation -->
  <rect x="0" y="50" width="400" height="30" fill="#34495e"/>
  <text x="20" y="70" font-family="Arial, sans-serif" font-size="12" fill="white">Home</text>
  <text x="70" y="70" font-family="Arial, sans-serif" font-size="12" fill="#bdc3c7">Portfolio</text>
  <text x="130" y="70" font-family="Arial, sans-serif" font-size="12" fill="#bdc3c7">Sobre</text>
  <text x="170" y="70" font-family="Arial, sans-serif" font-size="12" fill="#bdc3c7">Contato</text>
  
  <!-- Hero Section -->
  <rect x="20" y="100" width="360" height="80" fill="#ecf0f1" rx="8"/>
  <text x="200" y="125" font-family="Arial, sans-serif" font-size="20" font-weight="bold" fill="#2c3e50" text-anchor="middle">Designer Criativo</text>
  <text x="200" y="145" font-family="Arial, sans-serif" font-size="12" fill="#7f8c8d" text-anchor="middle">Especialista em UI/UX e Design Gráfico</text>
  <rect x="160" y="155" width="80" height="20" fill="#3498db" rx="10"/>
  <text x="200" y="168" font-family="Arial, sans-serif" font-size="10" fill="white" text-anchor="middle">Ver Trabalhos</text>
  
  <!-- Portfolio Grid -->
  <rect x="20" y="200" width="110" height="70" fill="white" stroke="#ddd" rx="4"/>
  <rect x="25" y="205" width="100" height="40" fill="#e74c3c" rx="2"/>
  <text x="30" y="255" font-family="Arial, sans-serif" font-size="10" font-weight="bold" fill="#2c3e50">Logo Design</text>
  <text x="30" y="265" font-family="Arial, sans-serif" font-size="8" fill="#7f8c8d">Identidade Visual</text>
  
  <rect x="145" y="200" width="110" height="70" fill="white" stroke="#ddd" rx="4"/>
  <rect x="150" y="205" width="100" height="40" fill="#9b59b6" rx="2"/>
  <text x="155" y="255" font-family="Arial, sans-serif" font-size="10" font-weight="bold" fill="#2c3e50">Web Design</text>
  <text x="155" y="265" font-family="Arial, sans-serif" font-size="8" fill="#7f8c8d">Interfaces Modernas</text>
  
  <rect x="270" y="200" width="110" height="70" fill="white" stroke="#ddd" rx="4"/>
  <rect x="275" y="205" width="100" height="40" fill="#f39c12" rx="2"/>
  <text x="280" y="255" font-family="Arial, sans-serif" font-size="10" font-weight="bold" fill="#2c3e50">Branding</text>
  <text x="280" y="265" font-family="Arial, sans-serif" font-size="8" fill="#7f8c8d">Marca Completa</text>
</svg>