<svg width="400" height="300" viewBox="0 0 400 300" xmlns="http://www.w3.org/2000/svg">
  <rect width="400" height="300" fill="#ffe0e6"/>
  <rect x="50" y="50" width="300" height="200" fill="#ffffff" rx="10" stroke="#ff6b9d" stroke-width="2"/>
  
  <!-- Dress on hanger -->
  <line x1="160" y1="80" x2="240" y2="80" stroke="#8B4513" stroke-width="3"/>
  <path d="M180 80 Q200 120 220 80" fill="#ff6b9d" stroke="#e91e63" stroke-width="1"/>
  <circle cx="200" cy="90" r="3" fill="#ffffff"/>
  
  <!-- Shirt -->
  <rect x="250" y="120" width="30" height="40" fill="#2196f3" rx="5"/>
  <rect x="248" y="115" width="34" height="15" fill="#1976d2" rx="3"/>
  <circle cx="258" cy="125" r="2" fill="#ffffff"/>
  <circle cx="272" cy="125" r="2" fill="#ffffff"/>
  
  <!-- Pants -->
  <rect x="120" y="140" width="15" height="40" fill="#424242"/>
  <rect x="140" y="140" width="15" height="40" fill="#424242"/>
  <rect x="118" y="140" width="19" height="20" fill="#616161"/>
  <rect x="138" y="140" width="19" height="20" fill="#616161"/>
  
  <!-- Shoes -->
  <ellipse cx="300" cy="170" rx="20" ry="8" fill="#8B4513"/>
  <ellipse cx="320" cy="170" rx="20" ry="8" fill="#8B4513"/>
  
  <!-- Store elements -->
  <text x="200" y="100" text-anchor="middle" font-family="Arial" font-size="14" font-weight="bold" fill="#ff6b9d">BELLA MODA</text>
  
  <text x="200" y="220" text-anchor="middle" font-family="Arial" font-size="18" font-weight="bold" fill="#333">Lojinha de Roupas Bella Moda</text>
  <text x="200" y="240" text-anchor="middle" font-family="Arial" font-size="12" fill="#666">Moda feminina com estilo e elegância</text>
</svg>