<svg width="400" height="600" viewBox="0 0 400 600" xmlns="http://www.w3.org/2000/svg">
  <!-- SaaS Dashboard -->
  <defs>
    <linearGradient id="saasGrad1" x1="0%" y1="0%" x2="100%" y2="0%">
      <stop offset="0%" style="stop-color:#667eea;stop-opacity:1" />
      <stop offset="100%" style="stop-color:#764ba2;stop-opacity:1" />
    </linearGradient>
    <linearGradient id="saasGrad2" x1="0%" y1="0%" x2="0%" y2="100%">
      <stop offset="0%" style="stop-color:#f093fb;stop-opacity:1" />
      <stop offset="100%" style="stop-color:#f5576c;stop-opacity:1" />
    </linearGradient>
  </defs>
  
  <!-- Browser Frame -->
  <rect width="400" height="600" fill="#f8fafc" rx="8"/>
  <rect width="400" height="30" fill="#e2e8f0" rx="8 8 0 0"/>
  <circle cx="15" cy="15" r="4" fill="#ff5f56"/>
  <circle cx="35" cy="15" r="4" fill="#ffbd2e"/>
  <circle cx="55" cy="15" r="4" fill="#27ca3f"/>
  
  <!-- Header -->
  <rect x="0" y="30" width="400" height="60" fill="white" stroke="#e2e8f0"/>
  <text x="20" y="55" fill="#1a202c" font-family="Arial, sans-serif" font-size="16" font-weight="bold">Analytics Pro</text>
  <text x="20" y="70" fill="#718096" font-family="Arial, sans-serif" font-size="10">Dashboard de M칠tricas</text>
  
  <!-- User Menu -->
  <circle cx="350" cy="60" r="15" fill="url(#saasGrad1)"/>
  <text x="345" y="65" fill="white" font-family="Arial, sans-serif" font-size="10" font-weight="bold">JS</text>
  
  <!-- Sidebar -->
  <rect x="0" y="90" width="80" height="510" fill="#2d3748"/>
  <rect x="10" y="110" width="60" height="25" fill="#667eea" rx="4"/>
  <text x="15" y="125" fill="white" font-family="Arial, sans-serif" font-size="9">游늵 Dashboard</text>
  
  <text x="15" y="150" fill="#a0aec0" font-family="Arial, sans-serif" font-size="9">游늳 Analytics</text>
  <text x="15" y="170" fill="#a0aec0" font-family="Arial, sans-serif" font-size="9">游논 Users</text>
  <text x="15" y="190" fill="#a0aec0" font-family="Arial, sans-serif" font-size="9">丘뙖잺 Settings</text>
  <text x="15" y="210" fill="#a0aec0" font-family="Arial, sans-serif" font-size="9">游늶 Reports</text>
  
  <!-- Main Content -->
  <rect x="80" y="90" width="320" height="510" fill="#f7fafc"/>
  
  <!-- Header Stats -->
  <text x="100" y="120" fill="#1a202c" font-family="Arial, sans-serif" font-size="14" font-weight="bold">Overview</text>
  <text x="100" y="135" fill="#718096" font-family="Arial, sans-serif" font-size="10">칔ltimos 30 dias</text>
  
  <!-- Stats Cards -->
  <rect x="100" y="150" width="70" height="60" fill="white" rx="6" stroke="#e2e8f0"/>
  <text x="110" y="170" fill="#667eea" font-family="Arial, sans-serif" font-size="16" font-weight="bold">1.2K</text>
  <text x="110" y="185" fill="#718096" font-family="Arial, sans-serif" font-size="9">Visitantes</text>
  <text x="110" y="200" fill="#48bb78" font-family="Arial, sans-serif" font-size="8">+12.5%</text>
  
  <rect x="185" y="150" width="70" height="60" fill="white" rx="6" stroke="#e2e8f0"/>
  <text x="195" y="170" fill="#f093fb" font-family="Arial, sans-serif" font-size="16" font-weight="bold">89</text>
  <text x="195" y="185" fill="#718096" font-family="Arial, sans-serif" font-size="9">Convers칫es</text>
  <text x="195" y="200" fill="#48bb78" font-family="Arial, sans-serif" font-size="8">+8.2%</text>
  
  <rect x="270" y="150" width="70" height="60" fill="white" rx="6" stroke="#e2e8f0"/>
  <text x="280" y="170" fill="#f5576c" font-family="Arial, sans-serif" font-size="16" font-weight="bold">7.4%</text>
  <text x="280" y="185" fill="#718096" font-family="Arial, sans-serif" font-size="9">Taxa Convers칚o</text>
  <text x="280" y="200" fill="#e53e3e" font-family="Arial, sans-serif" font-size="8">-2.1%</text>
  
  <!-- Chart Area -->
  <rect x="100" y="230" width="280" height="120" fill="white" rx="8" stroke="#e2e8f0"/>
  <text x="115" y="250" fill="#1a202c" font-family="Arial, sans-serif" font-size="12" font-weight="bold">Tr치fego do Site</text>
  
  <!-- Mock Chart -->
  <polyline points="120,320 140,300 160,280 180,290 200,270 220,260 240,250 260,265 280,255 300,240 320,230 340,235 360,225" 
            fill="none" stroke="#667eea" stroke-width="2"/>
  <polyline points="120,330 140,320 160,310 180,315 200,305 220,300 240,295 260,310 280,300 300,285 320,275 340,280 360,270" 
            fill="none" stroke="#f093fb" stroke-width="2"/>
  
  <!-- Chart Grid -->
  <line x1="120" y1="260" x2="360" y2="260" stroke="#e2e8f0" stroke-width="1"/>
  <line x1="120" y1="280" x2="360" y2="280" stroke="#e2e8f0" stroke-width="1"/>
  <line x1="120" y1="300" x2="360" y2="300" stroke="#e2e8f0" stroke-width="1"/>
  <line x1="120" y1="320" x2="360" y2="320" stroke="#e2e8f0" stroke-width="1"/>
  
  <!-- Recent Activity -->
  <rect x="100" y="370" width="130" height="140" fill="white" rx="8" stroke="#e2e8f0"/>
  <text x="115" y="390" fill="#1a202c" font-family="Arial, sans-serif" font-size="12" font-weight="bold">Atividade Recente</text>
  
  <circle cx="120" cy="410" r="3" fill="#48bb78"/>
  <text x="130" y="415" fill="#2d3748" font-family="Arial, sans-serif" font-size="9">Novo usu치rio registrado</text>
  <text x="130" y="425" fill="#a0aec0" font-family="Arial, sans-serif" font-size="8">2 min atr치s</text>
  
  <circle cx="120" cy="445" r="3" fill="#667eea"/>
  <text x="130" y="450" fill="#2d3748" font-family="Arial, sans-serif" font-size="9">Relat칩rio gerado</text>
  <text x="130" y="460" fill="#a0aec0" font-family="Arial, sans-serif" font-size="8">5 min atr치s</text>
  
  <circle cx="120" cy="480" r="3" fill="#f5576c"/>
  <text x="130" y="485" fill="#2d3748" font-family="Arial, sans-serif" font-size="9">Sistema atualizado</text>
  <text x="130" y="495" fill="#a0aec0" font-family="Arial, sans-serif" font-size="8">1 hora atr치s</text>
  
  <!-- Top Pages -->
  <rect x="250" y="370" width="130" height="140" fill="white" rx="8" stroke="#e2e8f0"/>
  <text x="265" y="390" fill="#1a202c" font-family="Arial, sans-serif" font-size="12" font-weight="bold">Top P치ginas</text>
  
  <text x="265" y="410" fill="#2d3748" font-family="Arial, sans-serif" font-size="9">/dashboard</text>
  <rect x="310" y="405" width="50" height="8" fill="#e2e8f0" rx="4"/>
  <rect x="310" y="405" width="35" height="8" fill="#667eea" rx="4"/>
  <text x="365" y="412" fill="#718096" font-family="Arial, sans-serif" font-size="8">423</text>
  
  <text x="265" y="430" fill="#2d3748" font-family="Arial, sans-serif" font-size="9">/analytics</text>
  <rect x="310" y="425" width="50" height="8" fill="#e2e8f0" rx="4"/>
  <rect x="310" y="425" width="25" height="8" fill="#f093fb" rx="4"/>
  <text x="365" y="432" fill="#718096" font-family="Arial, sans-serif" font-size="8">287</text>
  
  <text x="265" y="450" fill="#2d3748" font-family="Arial, sans-serif" font-size="9">/users</text>
  <rect x="310" y="445" width="50" height="8" fill="#e2e8f0" rx="4"/>
  <rect x="310" y="445" width="20" height="8" fill="#48bb78" rx="4"/>
  <text x="365" y="452" fill="#718096" font-family="Arial, sans-serif" font-size="8">156</text>
  
  <text x="265" y="470" fill="#2d3748" font-family="Arial, sans-serif" font-size="9">/settings</text>
  <rect x="310" y="465" width="50" height="8" fill="#e2e8f0" rx="4"/>
  <rect x="310" y="465" width="15" height="8" fill="#f5576c" rx="4"/>
  <text x="365" y="472" fill="#718096" font-family="Arial, sans-serif" font-size="8">89</text>
  
  <!-- Footer Action -->
  <rect x="100" y="530" width="280" height="50" fill="white" rx="8" stroke="#e2e8f0"/>
  <text x="115" y="550" fill="#1a202c" font-family="Arial, sans-serif" font-size="11" font-weight="bold">游늵 Gerar Relat칩rio Completo</text>
  <text x="115" y="565" fill="#718096" font-family="Arial, sans-serif" font-size="9">Exporte dados dos 칰ltimos 90 dias</text>
  <rect x="300" y="540" width="70" height="25" fill="url(#saasGrad1)" rx="4"/>
  <text x="325" y="555" fill="white" font-family="Arial, sans-serif" font-size="9" font-weight="bold">EXPORTAR</text>
</svg>