<svg width="400" height="300" viewBox="0 0 400 300" xmlns="http://www.w3.org/2000/svg">
  <rect width="400" height="300" fill="#e8f5e8"/>
  <rect x="50" y="50" width="300" height="200" fill="#ffffff" rx="10" stroke="#4caf50" stroke-width="2"/>
  
  <!-- Fruits and vegetables -->
  <!-- Banana -->
  <path d="M120 100 Q130 90 140 100 Q130 110 120 100" fill="#ffeb3b"/>
  
  <!-- Apple -->
  <circle cx="160" cy="110" r="12" fill="#f44336"/>
  <rect x="158" y="98" width="4" height="8" fill="#4caf50"/>
  
  <!-- Orange -->
  <circle cx="200" cy="105" r="10" fill="#ff9800"/>
  
  <!-- Carrot -->
  <path d="M240 120 L245 140 L250 120 Z" fill="#ff9800"/>
  <rect x="242" y="115" width="6" height="8" fill="#4caf50"/>
  
  <!-- Lettuce -->
  <circle cx="280" cy="120" r="15" fill="#4caf50"/>
  <circle cx="275" cy="115" r="8" fill="#66bb6a"/>
  <circle cx="285" cy="115" r="8" fill="#66bb6a"/>
  
  <!-- Tomato -->
  <circle cx="150" cy="160" r="10" fill="#f44336"/>
  <path d="M145 150 Q150 145 155 150" stroke="#4caf50" stroke-width="2" fill="none"/>
  
  <!-- Grapes -->
  <circle cx="200" cy="155" r="4" fill="#9c27b0"/>
  <circle cx="205" cy="160" r="4" fill="#9c27b0"/>
  <circle cx="195" cy="160" r="4" fill="#9c27b0"/>
  <circle cx="200" cy="165" r="4" fill="#9c27b0"/>
  
  <!-- Onion -->
  <circle cx="250" cy="160" r="8" fill="#fff3e0"/>
  <circle cx="250" cy="160" r="6" fill="#ffcc02"/>
  
  <!-- Store sign -->
  <rect x="100" y="75" width="200" height="25" fill="#4caf50" rx="5"/>
  <text x="200" y="92" text-anchor="middle" font-family="Arial" font-size="14" font-weight="bold" fill="#ffffff">HORTIFRÚTI DO JOÃO</text>
  
  <text x="200" y="220" text-anchor="middle" font-family="Arial" font-size="18" font-weight="bold" fill="#333">Sacolão Hortifrúti do João</text>
  <text x="200" y="240" text-anchor="middle" font-family="Arial" font-size="12" fill="#666">Frutas e verduras sempre fresquinhas</text>
</svg>