<svg width="400" height="600" viewBox="0 0 400 600" xmlns="http://www.w3.org/2000/svg">
  <!-- Site Institucional Consultoria -->
  <defs>
    <linearGradient id="corpGrad1" x1="0%" y1="0%" x2="100%" y2="0%">
      <stop offset="0%" style="stop-color:#2C3E50;stop-opacity:1" />
      <stop offset="100%" style="stop-color:#3498DB;stop-opacity:1" />
    </linearGradient>
    <linearGradient id="corpGrad2" x1="0%" y1="0%" x2="0%" y2="100%">
      <stop offset="0%" style="stop-color:#ECF0F1;stop-opacity:1" />
      <stop offset="100%" style="stop-color:#BDC3C7;stop-opacity:1" />
    </linearGradient>
  </defs>
  
  <!-- Browser Frame -->
  <rect width="400" height="600" fill="#f5f5f5" rx="8"/>
  <rect width="400" height="30" fill="#e0e0e0" rx="8 8 0 0"/>
  <circle cx="15" cy="15" r="4" fill="#ff5f56"/>
  <circle cx="35" cy="15" r="4" fill="#ffbd2e"/>
  <circle cx="55" cy="15" r="4" fill="#27ca3f"/>
  
  <!-- Header -->
  <rect x="0" y="30" width="400" height="70" fill="white" stroke="#E8E8E8"/>
  <text x="20" y="55" fill="#2C3E50" font-family="Arial, sans-serif" font-size="16" font-weight="bold">CONSULT PLUS</text>
  <text x="20" y="70" fill="#7F8C8D" font-family="Arial, sans-serif" font-size="10">Consultoria Empresarial</text>
  
  <!-- Navigation -->
  <rect x="200" y="45" width="180" height="30" fill="transparent"/>
  <text x="210" y="62" fill="#2C3E50" font-family="Arial, sans-serif" font-size="10">INÍCIO</text>
  <text x="250" y="62" fill="#7F8C8D" font-family="Arial, sans-serif" font-size="10">SERVIÇOS</text>
  <text x="300" y="62" fill="#7F8C8D" font-family="Arial, sans-serif" font-size="10">SOBRE</text>
  <text x="340" y="62" fill="#7F8C8D" font-family="Arial, sans-serif" font-size="10">CONTATO</text>
  
  <!-- Hero Section -->
  <rect x="0" y="100" width="400" height="140" fill="url(#corpGrad1)"/>
  <text x="30" y="140" fill="white" font-family="Arial, sans-serif" font-size="18" font-weight="bold">Transforme seu</text>
  <text x="30" y="160" fill="white" font-family="Arial, sans-serif" font-size="18" font-weight="bold">Negócio</text>
  <text x="30" y="185" fill="white" font-family="Arial, sans-serif" font-size="12" opacity="0.9">Consultoria especializada para</text>
  <text x="30" y="200" fill="white" font-family="Arial, sans-serif" font-size="12" opacity="0.9">empresas que querem crescer</text>
  <rect x="30" y="210" width="120" height="20" fill="white" rx="10"/>
  <text x="75" y="222" fill="#3498DB" font-family="Arial, sans-serif" font-size="10" font-weight="bold">AGENDE CONSULTA</text>
  
  <!-- Services Section -->
  <rect x="0" y="240" width="400" height="160" fill="white"/>
  <text x="30" y="265" fill="#2C3E50" font-family="Arial, sans-serif" font-size="14" font-weight="bold">Nossos Serviços</text>
  
  <!-- Service Cards -->
  <rect x="30" y="280" width="100" height="100" fill="#ECF0F1" rx="8"/>
  <rect x="35" y="285" width="90" height="40" fill="#3498DB" rx="4"/>
  <text x="40" y="335" fill="#2C3E50" font-family="Arial, sans-serif" font-size="10" font-weight="bold">Estratégia</text>
  <text x="40" y="350" fill="#7F8C8D" font-family="Arial, sans-serif" font-size="8">Planejamento</text>
  <text x="40" y="360" fill="#7F8C8D" font-family="Arial, sans-serif" font-size="8">estratégico</text>
  
  <rect x="150" y="280" width="100" height="100" fill="#ECF0F1" rx="8"/>
  <rect x="155" y="285" width="90" height="40" fill="#E74C3C" rx="4"/>
  <text x="160" y="335" fill="#2C3E50" font-family="Arial, sans-serif" font-size="10" font-weight="bold">Processos</text>
  <text x="160" y="350" fill="#7F8C8D" font-family="Arial, sans-serif" font-size="8">Otimização</text>
  <text x="160" y="360" fill="#7F8C8D" font-family="Arial, sans-serif" font-size="8">operacional</text>
  
  <rect x="270" y="280" width="100" height="100" fill="#ECF0F1" rx="8"/>
  <rect x="275" y="285" width="90" height="40" fill="#27AE60" rx="4"/>
  <text x="280" y="335" fill="#2C3E50" font-family="Arial, sans-serif" font-size="10" font-weight="bold">Crescimento</text>
  <text x="280" y="350" fill="#7F8C8D" font-family="Arial, sans-serif" font-size="8">Expansão de</text>
  <text x="280" y="360" fill="#7F8C8D" font-family="Arial, sans-serif" font-size="8">mercado</text>
  
  <!-- About Section -->
  <rect x="0" y="400" width="400" height="80" fill="#F8F9FA"/>
  <text x="30" y="425" fill="#2C3E50" font-family="Arial, sans-serif" font-size="12" font-weight="bold">+ de 200 empresas atendidas</text>
  <text x="30" y="440" fill="#7F8C8D" font-family="Arial, sans-serif" font-size="10">15 anos de experiência no mercado</text>
  <text x="30" y="455" fill="#7F8C8D" font-family="Arial, sans-serif" font-size="10">Consultores certificados e especializados</text>
  <rect x="280" y="415" width="90" height="15" fill="#27AE60" rx="8"/>
  <text x="310" y="425" fill="white" font-family="Arial, sans-serif" font-size="8" font-weight="bold">SAIBA MAIS</text>
  
  <!-- Contact Section -->
  <rect x="0" y="480" width="400" height="70" fill="#2C3E50"/>
  <text x="30" y="505" fill="white" font-family="Arial, sans-serif" font-size="12" font-weight="bold">Entre em Contato</text>
  <text x="30" y="520" fill="#BDC3C7" font-family="Arial, sans-serif" font-size="10">📞 (11) 3333-4444</text>
  <text x="30" y="535" fill="#BDC3C7" font-family="Arial, sans-serif" font-size="10">✉️ contato@consultplus.com.br</text>
  
  <!-- Schedule Button -->
  <rect x="250" y="500" width="120" height="25" fill="#3498DB" rx="12"/>
  <text x="295" y="515" fill="white" font-family="Arial, sans-serif" font-size="10" font-weight="bold">AGENDAR REUNIÃO</text>
  
  <!-- Footer -->
  <rect x="0" y="550" width="400" height="50" fill="#34495E"/>
  <text x="30" y="570" fill="#95A5A6" font-family="Arial, sans-serif" font-size="9">© 2024 Consult Plus - Todos os direitos reservados</text>
  <text x="30" y="585" fill="#95A5A6" font-family="Arial, sans-serif" font-size="9">São Paulo - SP | LinkedIn | Instagram</text>
</svg>