<svg xmlns="http://www.w3.org/2000/svg" width="400" height="250" viewBox="0 0 400 250">
  <defs>
    <linearGradient id="realBg1" x1="0%" y1="0%" x2="100%" y2="100%">
      <stop offset="0%" style="stop-color:#1e3a8a;stop-opacity:1" />
      <stop offset="100%" style="stop-color:#3b82f6;stop-opacity:1" />
    </linearGradient>
  </defs>
  <rect width="400" height="250" fill="url(#realBg1)"/>
  
  <!-- Header mockup -->
  <rect x="20" y="20" width="360" height="40" fill="white" opacity="0.9" rx="5"/>
  <rect x="30" y="30" width="80" height="20" fill="#1e3a8a" opacity="0.7" rx="3"/>
  <rect x="320" y="30" width="50" height="20" fill="#1e3a8a" opacity="0.7" rx="3"/>
  
  <!-- Hero section -->
  <rect x="20" y="80" width="360" height="100" fill="white" opacity="0.1" rx="8"/>
  <text x="200" y="110" font-family="Arial, sans-serif" font-size="18" font-weight="bold" text-anchor="middle" fill="white">Padaria Artesanal do Vale</text>
  <text x="200" y="135" font-family="Arial, sans-serif" font-size="14" text-anchor="middle" fill="white" opacity="0.9">Delivery de pães e doces caseiros</text>
  <rect x="150" y="145" width="100" height="25" fill="#fbbf24" rx="12"/>
  <text x="200" y="162" font-family="Arial, sans-serif" font-size="12" font-weight="bold" text-anchor="middle" fill="#1e3a8a">Fazer Pedido</text>
  
  <!-- Products grid -->
  <rect x="30" y="200" width="60" height="40" fill="white" opacity="0.2" rx="4"/>
  <rect x="100" y="200" width="60" height="40" fill="white" opacity="0.2" rx="4"/>
  <rect x="170" y="200" width="60" height="40" fill="white" opacity="0.2" rx="4"/>
  <rect x="240" y="200" width="60" height="40" fill="white" opacity="0.2" rx="4"/>
  <rect x="310" y="200" width="60" height="40" fill="white" opacity="0.2" rx="4"/>
  
  <!-- Bread icons -->
  <circle cx="60" cy="220" r="8" fill="#fbbf24"/>
  <circle cx="130" cy="220" r="8" fill="#f59e0b"/>
  <circle cx="200" cy="220" r="8" fill="#d97706"/>
  <circle cx="270" cy="220" r="8" fill="#fbbf24"/>
  <circle cx="340" cy="220" r="8" fill="#f59e0b"/>
</svg>